<svg width="49" height="49" viewBox="0 0 49 49" fill="none" xmlns="http://www.w3.org/2000/svg">
<path d="M17.9286 45.1877C18.9592 45.1877 19.7946 44.3522 19.7946 43.3216C19.7946 42.291 18.9592 41.4556 17.9286 41.4556C16.898 41.4556 16.0625 42.291 16.0625 43.3216C16.0625 44.3522 16.898 45.1877 17.9286 45.1877Z" stroke="white" stroke-linecap="round" stroke-linejoin="round"/>
<path d="M38.4559 45.1877C39.4865 45.1877 40.322 44.3522 40.322 43.3216C40.322 42.291 39.4865 41.4556 38.4559 41.4556C37.4253 41.4556 36.5898 42.291 36.5898 43.3216C36.5898 44.3522 37.4253 45.1877 38.4559 45.1877Z" stroke="white" stroke-linecap="round" stroke-linejoin="round"/>
<path d="M3 6H10.4643L15.4653 30.9866C15.636 31.8458 16.1033 32.6175 16.7856 33.1667C17.468 33.716 18.3217 34.0078 19.1975 33.991H37.3356C38.2114 34.0078 39.0651 33.716 39.7474 33.1667C40.4297 32.6175 40.8971 31.8458 41.0677 30.9866L44.0535 15.3303H12.3303" stroke="white" stroke-linecap="round" stroke-linejoin="round"/>
</svg>
