<svg width="35" height="35" viewBox="0 0 35 35" fill="none" xmlns="http://www.w3.org/2000/svg">
<path d="M17.5 30.6249L15.3854 28.7291C12.9305 26.5173 10.901 24.6093 9.29683 23.0051C7.69267 21.401 6.41663 19.9606 5.46871 18.6841C4.52079 17.4085 3.85871 16.236 3.48246 15.1666C3.10524 14.0971 2.91663 13.0034 2.91663 11.8853C2.91663 9.60061 3.68225 7.69263 5.2135 6.16138C6.74475 4.63013 8.65274 3.8645 10.9375 3.8645C12.2013 3.8645 13.4045 4.13186 14.5468 4.66659C15.6892 5.20131 16.6736 5.95478 17.5 6.927C18.3263 5.95478 19.3107 5.20131 20.4531 4.66659C21.5954 4.13186 22.7986 3.8645 24.0625 3.8645C26.3472 3.8645 28.2552 4.63013 29.7864 6.16138C31.3177 7.69263 32.0833 9.60061 32.0833 11.8853C32.0833 13.0034 31.8952 14.0971 31.5189 15.1666C31.1417 16.236 30.4791 17.4085 29.5312 18.6841C28.5833 19.9606 27.3072 21.401 25.7031 23.0051C24.0989 24.6093 22.0694 26.5173 19.6145 28.7291L17.5 30.6249Z" fill="white"/>
</svg>
