<svg width="35" height="35" viewBox="0 0 35 35" fill="none" xmlns="http://www.w3.org/2000/svg">
<path d="M17.5 30.6249L15.3854 28.7291C12.9305 26.5173 10.901 24.6093 9.29683 23.0051C7.69267 21.401 6.41663 19.9606 5.46871 18.6841C4.52079 17.4085 3.85871 16.236 3.48246 15.1666C3.10524 14.0971 2.91663 13.0034 2.91663 11.8853C2.91663 9.60061 3.68225 7.69263 5.2135 6.16138C6.74475 4.63013 8.65274 3.8645 10.9375 3.8645C12.2013 3.8645 13.4045 4.13186 14.5468 4.66659C15.6892 5.20131 16.6736 5.95478 17.5 6.927C18.3263 5.95478 19.3107 5.20131 20.4531 4.66659C21.5954 4.13186 22.7986 3.8645 24.0625 3.8645C26.3472 3.8645 28.2552 4.63013 29.7864 6.16138C31.3177 7.69263 32.0833 9.60061 32.0833 11.8853C32.0833 13.0034 31.8952 14.0971 31.5189 15.1666C31.1417 16.236 30.4791 17.4085 29.5312 18.6841C28.5833 19.9606 27.3072 21.401 25.7031 23.0051C24.0989 24.6093 22.0694 26.5173 19.6145 28.7291L17.5 30.6249ZM17.5 26.6874C19.8333 24.5971 21.7534 22.8044 23.2604 21.3091C24.7673 19.8148 25.9583 18.5149 26.8333 17.4095C27.7083 16.3031 28.3159 15.3183 28.6562 14.4549C28.9965 13.5926 29.1666 12.736 29.1666 11.8853C29.1666 10.427 28.6805 9.21172 27.7083 8.2395C26.7361 7.26728 25.5208 6.78117 24.0625 6.78117C22.9201 6.78117 21.8628 7.10297 20.8906 7.74658C19.9184 8.39117 19.25 9.21172 18.8854 10.2083H16.1145C15.75 9.21172 15.0816 8.39117 14.1093 7.74658C13.1371 7.10297 12.0798 6.78117 10.9375 6.78117C9.47913 6.78117 8.26385 7.26728 7.29163 8.2395C6.3194 9.21172 5.83329 10.427 5.83329 11.8853C5.83329 12.736 6.00343 13.5926 6.34371 14.4549C6.68399 15.3183 7.29163 16.3031 8.16663 17.4095C9.04163 18.5149 10.2326 19.8148 11.7395 21.3091C13.2465 22.8044 15.1666 24.5971 17.5 26.6874Z" fill="white"/>
</svg>
